<svg width="16" height="8" viewBox="0 0 16 8" fill="none" xmlns="http://www.w3.org/2000/svg">
<path d="M15.6757 0.329895C15.572 0.225362 15.4487 0.142392 15.3127 0.0857716C15.1768 0.0291509 15.0311 0 14.8838 0C14.7366 0 14.5908 0.0291509 14.4549 0.0857716C14.319 0.142392 14.1957 0.225362 14.092 0.329895L8.98407 5.43783C8.88039 5.54236 8.75704 5.62533 8.62113 5.68195C8.48523 5.73857 8.33945 5.76772 8.19223 5.76772C8.045 5.76772 7.89922 5.73857 7.76332 5.68195C7.62741 5.62533 7.50406 5.54236 7.40038 5.43783L2.29245 0.329895C2.18878 0.225362 2.06543 0.142392 1.92952 0.0857716C1.79361 0.0291509 1.64784 0 1.50061 0C1.35338 0 1.20761 0.0291509 1.07171 0.0857716C0.935801 0.142392 0.812451 0.225362 0.708772 0.329895C0.501052 0.538854 0.38446 0.821521 0.38446 1.11616C0.38446 1.4108 0.501052 1.69346 0.708772 1.90242L5.82786 7.02151C6.4552 7.64807 7.30558 8 8.19223 8C9.07887 8 9.92925 7.64807 10.5566 7.02151L15.6757 1.90242C15.8834 1.69346 16 1.4108 16 1.11616C16 0.821521 15.8834 0.538854 15.6757 0.329895Z" fill="#595959"/>
</svg>
