<svg width="64" height="64" viewBox="0 0 64 64" fill="none" xmlns="http://www.w3.org/2000/svg">
<path d="M57.7418 21.0534L31.5533 3.59437C31.2319 3.38008 30.8135 3.38008 30.4921 3.59437L4.30358 21.0534C4.03764 21.2307 3.87756 21.5298 3.87756 21.8493C3.87756 22.1688 4.037 22.4679 4.30358 22.6452L8.28122 25.297V39.2719C8.28122 39.5978 8.44703 39.9014 8.72127 40.0774L30.6592 54.1417C30.8167 54.2425 30.9959 54.2928 31.1758 54.2928C31.3639 54.2928 31.5527 54.2374 31.7147 54.1264L43.1603 46.3178V51.7629L38.8964 60.2909C38.7484 60.5874 38.7643 60.9401 38.9378 61.222C39.1119 61.5032 39.4206 61.6754 39.7516 61.6754H48.4817C48.8133 61.6754 49.1214 61.5032 49.2955 61.222C49.4689 60.9401 49.4855 60.5874 49.3369 60.2909L45.073 51.7629V45.0123L52.3286 40.0621C52.5895 39.8842 52.7457 39.5883 52.7457 39.2719V25.9755L57.7412 22.6452C58.0071 22.4679 58.1672 22.1688 58.1672 21.8493C58.1672 21.5298 58.0078 21.2307 57.7418 21.0534ZM41.3 59.7622L44.117 54.1283L46.9339 59.7622H41.3ZM31.1592 52.1895L10.1945 38.749V26.5725L30.4921 40.1048C30.6528 40.212 30.8378 40.2656 31.0227 40.2656C31.2077 40.2656 31.3926 40.212 31.5533 40.1048L43.1603 32.3664V44.0015L31.1592 52.1895ZM50.8331 38.7668L45.0736 42.6967V31.0909L50.8331 27.251V38.7668ZM51.4575 24.5355C51.3165 24.5878 51.1922 24.6713 51.0914 24.7797L44.117 29.4296L31.5533 21.0534C31.1126 20.76 30.5195 20.8793 30.2268 21.3187C29.9341 21.7581 30.0527 22.3525 30.4921 22.6452L42.3925 30.5788L31.0227 38.1591L6.55866 21.8493L31.0227 5.54014L55.4867 21.8493L51.4575 24.5355Z" fill="url(#paint0_linear_0_1814)"/>
<defs>
<linearGradient id="paint0_linear_0_1814" x1="44.2117" y1="-3.29373" x2="-3.35982" y2="49.1921" gradientUnits="userSpaceOnUse">
<stop offset="0.1177" stop-color="#7ACA37"/>
<stop offset="0.2561" stop-color="#70C53A"/>
<stop offset="0.4886" stop-color="#56B641"/>
<stop offset="0.7848" stop-color="#2C9F4E"/>
<stop offset="1" stop-color="#098C58"/>
</linearGradient>
</defs>
</svg>
