<svg width="65" height="64" viewBox="0 0 65 64" fill="none" xmlns="http://www.w3.org/2000/svg">
<path d="M37.6365 44.6378L47.1984 29.2628C47.2296 29.213 47.2558 29.1607 47.2762 29.1065C48.9273 26.4139 49.7991 23.338 49.7991 20.1977C49.7991 10.7768 42.1346 3.11224 32.7137 3.11224C23.2927 3.11224 15.6276 10.7768 15.6276 20.1977C15.6276 23.3386 16.5007 26.4158 18.1531 29.1103C18.1722 29.1575 18.1945 29.2034 18.2213 29.2481L27.4401 44.676C20.2838 45.6875 15.5778 48.6301 15.5778 52.1996C15.5778 56.6225 23.0938 60.0861 32.6882 60.0861C42.2825 60.0861 49.7985 56.6218 49.7985 52.1996C49.7991 48.6135 44.8737 45.6052 37.6365 44.6378ZM19.8705 28.2487C18.3463 25.8227 17.5408 23.0389 17.5408 20.1977C17.5408 11.8316 24.347 5.02551 32.7137 5.02551C41.0797 5.02551 47.8859 11.8316 47.8859 20.1977C47.8859 23.0402 47.0804 25.824 45.5568 28.2487C45.5249 28.2997 45.4987 28.3527 45.4777 28.4075L35.3757 44.6492C35.2239 44.882 35.1939 44.935 35.0083 45.2398L32.4573 49.3418L19.956 28.4209C19.9337 28.3616 19.905 28.3036 19.8705 28.2487ZM32.6888 58.1728C23.7328 58.1728 17.4917 55.0242 17.4917 52.1996C17.4917 49.6358 22.192 47.22 28.514 46.4719L31.6199 51.6703C31.7915 51.9566 32.0989 52.1333 32.4324 52.1358C32.435 52.1358 32.4382 52.1358 32.4407 52.1358C32.7711 52.1358 33.0785 51.9649 33.2532 51.6843L36.5185 46.4343C42.9413 47.1301 47.8852 49.6071 47.8852 52.1996C47.8859 55.0249 41.6448 58.1728 32.6888 58.1728Z" fill="url(#paint0_linear_1301_673)"/>
<path d="M38.9012 20.1977C38.9012 16.7723 36.1142 13.9853 32.6888 13.9853C29.2634 13.9853 26.4764 16.7723 26.4764 20.1977C26.4764 23.6231 29.2634 26.4101 32.6888 26.4101C36.1142 26.4101 38.9012 23.6231 38.9012 20.1977ZM28.3897 20.1977C28.3897 17.8272 30.3183 15.8986 32.6888 15.8986C35.0594 15.8986 36.9879 17.8272 36.9879 20.1977C36.9879 22.5682 35.06 24.4968 32.6888 24.4968C30.3176 24.4968 28.3897 22.5682 28.3897 20.1977Z" fill="url(#paint1_linear_1301_673)"/>
<defs>
<linearGradient id="paint0_linear_1301_673" x1="41.0023" y1="-3.46869" x2="-3.16331" y2="27.9305" gradientUnits="userSpaceOnUse">
<stop offset="0.1177" stop-color="#7ACA37"/>
<stop offset="0.2561" stop-color="#70C53A"/>
<stop offset="0.4886" stop-color="#56B641"/>
<stop offset="0.7848" stop-color="#2C9F4E"/>
<stop offset="1" stop-color="#098C58"/>
</linearGradient>
<linearGradient id="paint1_linear_1301_673" x1="35.7073" y1="12.5502" x2="25.653" y2="24.4507" gradientUnits="userSpaceOnUse">
<stop offset="0.1177" stop-color="#7ACA37"/>
<stop offset="0.2561" stop-color="#70C53A"/>
<stop offset="0.4886" stop-color="#56B641"/>
<stop offset="0.7848" stop-color="#2C9F4E"/>
<stop offset="1" stop-color="#098C58"/>
</linearGradient>
</defs>
</svg>
