<svg width="33" height="20" viewBox="0 0 33 20" fill="none" xmlns="http://www.w3.org/2000/svg">
<g id="Group">
<g id="Vector">
<path d="M17.8419 19.99C6.90186 19.99 0.661855 12.49 0.401855 -0.0100098H5.88186C6.06185 9.14999 10.1019 12.99 13.3019 13.83V0.00999069H18.4619V7.90999C21.6219 7.56999 24.9419 3.96999 26.0619 0.00999069H31.2219C30.8072 2.06925 29.9714 4.02057 28.7668 5.74143C27.5622 7.4623 26.0148 8.91557 24.2219 10.01C26.2208 11.0014 27.9868 12.4052 29.4037 14.1289C30.8206 15.8526 31.856 17.857 32.4419 20.01H26.7419C26.2189 18.1364 25.154 16.4591 23.6808 15.1888C22.2077 13.9184 20.392 13.1117 18.4619 12.87V20.01L17.8419 19.99Z" fill="white"/>
<path d="M17.8419 19.99C6.90186 19.99 0.661855 12.49 0.401855 -0.0100098H5.88186C6.06185 9.14999 10.1019 12.99 13.3019 13.83V0.00999069H18.4619V7.90999C21.6219 7.56999 24.9419 3.96999 26.0619 0.00999069H31.2219C30.8072 2.06925 29.9714 4.02057 28.7668 5.74143C27.5622 7.4623 26.0148 8.91557 24.2219 10.01C26.2208 11.0014 27.9868 12.4052 29.4037 14.1289C30.8206 15.8526 31.856 17.857 32.4419 20.01H26.7419C26.2189 18.1364 25.154 16.4591 23.6808 15.1888C22.2077 13.9184 20.392 13.1117 18.4619 12.87V20.01L17.8419 19.99Z" fill="url(#paint0_linear_0_1959)"/>
</g>
</g>
<defs>
<linearGradient id="paint0_linear_0_1959" x1="24.2057" y1="-2.32248" x2="10.6384" y2="23.3778" gradientUnits="userSpaceOnUse">
<stop offset="0.1177" stop-color="#7ACA37"/>
<stop offset="0.2561" stop-color="#70C53A"/>
<stop offset="0.4886" stop-color="#56B641"/>
<stop offset="0.7848" stop-color="#2C9F4E"/>
<stop offset="1" stop-color="#098C58"/>
</linearGradient>
</defs>
</svg>
