<svg width="33" height="32" viewBox="0 0 33 32" fill="none" xmlns="http://www.w3.org/2000/svg">
<g id="&#208;&#161;&#208;&#187;&#208;&#190;&#208;&#185; 2">
<g id="Logo">
<g id="Vector">
<path d="M16.4419 2.88414C20.7144 2.88414 21.2199 2.90065 22.9074 2.9775C24.4673 3.04864 25.3146 3.30904 25.8785 3.52816C26.5744 3.78436 27.2038 4.19348 27.7204 4.72536C28.2523 5.24198 28.6614 5.87141 28.9176 6.56722C29.1367 7.13121 29.3971 7.97846 29.4683 9.53832C29.5451 11.2258 29.5616 11.7314 29.5616 16.0039C29.5616 20.2763 29.5451 20.7819 29.4683 22.4694C29.3971 24.0293 29.1367 24.8765 28.9176 25.4405C28.6511 26.1304 28.2433 26.7569 27.7204 27.2798C27.1975 27.8028 26.5709 28.2106 25.8811 28.477C25.3171 28.6962 24.4698 28.9566 22.91 29.0277C21.2231 29.1045 20.7169 29.1211 16.4444 29.1211C12.172 29.1211 11.6658 29.1045 9.97889 29.0277C8.41903 28.9566 7.57178 28.6962 7.00779 28.477C6.31198 28.2208 5.68255 27.8117 5.16593 27.2798C4.63406 26.7632 4.22493 26.1338 3.96873 25.438C3.74961 24.874 3.48921 24.0267 3.41808 22.4669C3.34123 20.7794 3.32471 20.2738 3.32471 16.0013C3.32471 11.7289 3.34123 11.2233 3.41808 9.53578C3.48921 7.97592 3.74961 7.12866 3.96873 6.56468C4.22493 5.86887 4.63406 5.23944 5.16593 4.72282C5.68255 4.19094 6.31198 3.78182 7.00779 3.52561C7.57178 3.3065 8.41903 3.0461 9.97889 2.97496C11.6664 2.89811 12.172 2.8816 16.4444 2.8816L16.4419 2.88414ZM16.4444 -0.0012207C12.0989 -0.0012207 11.554 0.0171978 9.84742 0.0953179C8.14085 0.173438 6.97921 0.445906 5.96111 0.841587C4.89357 1.24327 3.92647 1.87291 3.12719 2.68662C2.31463 3.48621 1.68609 4.45329 1.28534 5.52053C0.88648 6.53864 0.615918 7.70154 0.538433 9.40431C0.460948 11.1071 0.441895 11.6558 0.441895 16.0013C0.441895 20.3468 0.460313 20.8918 0.538433 22.5983C0.616553 24.3049 0.88648 25.464 1.28216 26.4821C1.68384 27.5497 2.31348 28.5168 3.12719 29.316C3.92662 30.1297 4.89366 30.7595 5.96111 31.1617C6.9773 31.5567 8.14212 31.8273 9.84488 31.9054C11.5476 31.9835 12.0964 32.0013 16.4419 32.0013C20.7874 32.0013 21.3323 31.9829 23.0389 31.9054C24.7455 31.8279 25.9046 31.5567 26.9227 31.1617C27.9855 30.7505 28.9508 30.1219 29.7566 29.316C30.5624 28.5102 31.1911 27.545 31.6023 26.4821C31.9973 25.4659 32.2679 24.3011 32.346 22.5983C32.4241 20.8956 32.4419 20.3468 32.4419 16.0013C32.4419 11.6558 32.4235 11.1109 32.346 9.40431C32.2685 7.69773 31.9973 6.53864 31.6023 5.52053C31.2001 4.45309 30.5703 3.48604 29.7566 2.68662C28.957 1.87405 27.9899 1.24552 26.9227 0.844762C25.9046 0.445906 24.7417 0.175343 23.0389 0.0978584C21.3361 0.0203735 20.7874 0.00131979 16.4419 0.00131979L16.4444 -0.0012207Z" fill="#F5F5F5"/>
<path d="M16.4419 2.88414C20.7144 2.88414 21.2199 2.90065 22.9074 2.9775C24.4673 3.04864 25.3146 3.30904 25.8785 3.52816C26.5744 3.78436 27.2038 4.19348 27.7204 4.72536C28.2523 5.24198 28.6614 5.87141 28.9176 6.56722C29.1367 7.13121 29.3971 7.97846 29.4683 9.53832C29.5451 11.2258 29.5616 11.7314 29.5616 16.0039C29.5616 20.2763 29.5451 20.7819 29.4683 22.4694C29.3971 24.0293 29.1367 24.8765 28.9176 25.4405C28.6511 26.1304 28.2433 26.7569 27.7204 27.2798C27.1975 27.8028 26.5709 28.2106 25.8811 28.477C25.3171 28.6962 24.4698 28.9566 22.91 29.0277C21.2231 29.1045 20.7169 29.1211 16.4444 29.1211C12.172 29.1211 11.6658 29.1045 9.97889 29.0277C8.41903 28.9566 7.57178 28.6962 7.00779 28.477C6.31198 28.2208 5.68255 27.8117 5.16593 27.2798C4.63406 26.7632 4.22493 26.1338 3.96873 25.438C3.74961 24.874 3.48921 24.0267 3.41808 22.4669C3.34123 20.7794 3.32471 20.2738 3.32471 16.0013C3.32471 11.7289 3.34123 11.2233 3.41808 9.53578C3.48921 7.97592 3.74961 7.12866 3.96873 6.56468C4.22493 5.86887 4.63406 5.23944 5.16593 4.72282C5.68255 4.19094 6.31198 3.78182 7.00779 3.52561C7.57178 3.3065 8.41903 3.0461 9.97889 2.97496C11.6664 2.89811 12.172 2.8816 16.4444 2.8816L16.4419 2.88414ZM16.4444 -0.0012207C12.0989 -0.0012207 11.554 0.0171978 9.84742 0.0953179C8.14085 0.173438 6.97921 0.445906 5.96111 0.841587C4.89357 1.24327 3.92647 1.87291 3.12719 2.68662C2.31463 3.48621 1.68609 4.45329 1.28534 5.52053C0.88648 6.53864 0.615918 7.70154 0.538433 9.40431C0.460948 11.1071 0.441895 11.6558 0.441895 16.0013C0.441895 20.3468 0.460313 20.8918 0.538433 22.5983C0.616553 24.3049 0.88648 25.464 1.28216 26.4821C1.68384 27.5497 2.31348 28.5168 3.12719 29.316C3.92662 30.1297 4.89366 30.7595 5.96111 31.1617C6.9773 31.5567 8.14212 31.8273 9.84488 31.9054C11.5476 31.9835 12.0964 32.0013 16.4419 32.0013C20.7874 32.0013 21.3323 31.9829 23.0389 31.9054C24.7455 31.8279 25.9046 31.5567 26.9227 31.1617C27.9855 30.7505 28.9508 30.1219 29.7566 29.316C30.5624 28.5102 31.1911 27.545 31.6023 26.4821C31.9973 25.4659 32.2679 24.3011 32.346 22.5983C32.4241 20.8956 32.4419 20.3468 32.4419 16.0013C32.4419 11.6558 32.4235 11.1109 32.346 9.40431C32.2685 7.69773 31.9973 6.53864 31.6023 5.52053C31.2001 4.45309 30.5703 3.48604 29.7566 2.68662C28.957 1.87405 27.9899 1.24552 26.9227 0.844762C25.9046 0.445906 24.7417 0.175343 23.0389 0.0978584C21.3361 0.0203735 20.7874 0.00131979 16.4419 0.00131979L16.4444 -0.0012207Z" fill="url(#paint0_linear_0_1962)"/>
</g>
<g id="Vector_2">
<path d="M16.4419 7.7854C14.8168 7.7854 13.2282 8.26731 11.877 9.17019C10.5258 10.0731 9.47261 11.3564 8.85074 12.8578C8.22886 14.3592 8.06618 16.0113 8.38327 17.6052C8.70036 19.1991 9.48298 20.6631 10.6322 21.8122C11.7813 22.9613 13.2454 23.7438 14.8393 24.0608C16.4332 24.3777 18.0854 24.2149 19.5867 23.5929C21.0881 22.9709 22.3713 21.9177 23.2741 20.5664C24.1769 19.2151 24.6586 17.6265 24.6585 16.0013C24.6586 14.9223 24.4461 13.8539 24.0332 12.857C23.6203 11.8601 23.0151 10.9543 22.2521 10.1914C21.4891 9.42844 20.5833 8.82327 19.5863 8.41045C18.5894 7.99763 17.5209 7.78523 16.4419 7.7854ZM16.4419 21.3345C15.3868 21.3345 14.3553 21.0216 13.4779 20.4353C12.6006 19.8491 11.9168 19.0159 11.513 18.0411C11.1092 17.0662 11.0036 15.9935 11.2094 14.9586C11.4153 13.9237 11.9234 12.9731 12.6695 12.227C13.4156 11.4809 14.3662 10.9728 15.4011 10.7669C16.436 10.5611 17.5087 10.6667 18.4836 11.0705C19.4584 11.4743 20.2916 12.1581 20.8779 13.0355C21.4641 13.9128 21.777 14.9443 21.777 15.9994C21.777 17.4144 21.2149 18.7714 20.2144 19.7719C19.2139 20.7724 17.8569 21.3345 16.4419 21.3345Z" fill="#F5F5F5"/>
<path d="M16.4419 7.7854C14.8168 7.7854 13.2282 8.26731 11.877 9.17019C10.5258 10.0731 9.47261 11.3564 8.85074 12.8578C8.22886 14.3592 8.06618 16.0113 8.38327 17.6052C8.70036 19.1991 9.48298 20.6631 10.6322 21.8122C11.7813 22.9613 13.2454 23.7438 14.8393 24.0608C16.4332 24.3777 18.0854 24.2149 19.5867 23.5929C21.0881 22.9709 22.3713 21.9177 23.2741 20.5664C24.1769 19.2151 24.6586 17.6265 24.6585 16.0013C24.6586 14.9223 24.4461 13.8539 24.0332 12.857C23.6203 11.8601 23.0151 10.9543 22.2521 10.1914C21.4891 9.42844 20.5833 8.82327 19.5863 8.41045C18.5894 7.99763 17.5209 7.78523 16.4419 7.7854ZM16.4419 21.3345C15.3868 21.3345 14.3553 21.0216 13.4779 20.4353C12.6006 19.8491 11.9168 19.0159 11.513 18.0411C11.1092 17.0662 11.0036 15.9935 11.2094 14.9586C11.4153 13.9237 11.9234 12.9731 12.6695 12.227C13.4156 11.4809 14.3662 10.9728 15.4011 10.7669C16.436 10.5611 17.5087 10.6667 18.4836 11.0705C19.4584 11.4743 20.2916 12.1581 20.8779 13.0355C21.4641 13.9128 21.777 14.9443 21.777 15.9994C21.777 17.4144 21.2149 18.7714 20.2144 19.7719C19.2139 20.7724 17.8569 21.3345 16.4419 21.3345Z" fill="url(#paint1_linear_0_1962)"/>
</g>
<g id="Vector_3">
<path d="M24.983 9.38023C26.0434 9.38023 26.903 8.52063 26.903 7.46026C26.903 6.39989 26.0434 5.54028 24.983 5.54028C23.9227 5.54028 23.063 6.39989 23.063 7.46026C23.063 8.52063 23.9227 9.38023 24.983 9.38023Z" fill="#F5F5F5"/>
<path d="M24.983 9.38023C26.0434 9.38023 26.903 8.52063 26.903 7.46026C26.903 6.39989 26.0434 5.54028 24.983 5.54028C23.9227 5.54028 23.063 6.39989 23.063 7.46026C23.063 8.52063 23.9227 9.38023 24.983 9.38023Z" fill="url(#paint2_linear_0_1962)"/>
</g>
</g>
</g>
<defs>
<linearGradient id="paint0_linear_0_1962" x1="24.2161" y1="-3.69777" x2="-1.68131" y2="26.9525" gradientUnits="userSpaceOnUse">
<stop offset="0.1177" stop-color="#7ACA37"/>
<stop offset="0.2561" stop-color="#70C53A"/>
<stop offset="0.4886" stop-color="#56B641"/>
<stop offset="0.7848" stop-color="#2C9F4E"/>
<stop offset="1" stop-color="#098C58"/>
</linearGradient>
<linearGradient id="paint1_linear_0_1962" x1="20.4343" y1="5.88724" x2="7.13626" y2="21.6271" gradientUnits="userSpaceOnUse">
<stop offset="0.1177" stop-color="#7ACA37"/>
<stop offset="0.2561" stop-color="#70C53A"/>
<stop offset="0.4886" stop-color="#56B641"/>
<stop offset="0.7848" stop-color="#2C9F4E"/>
<stop offset="1" stop-color="#098C58"/>
</linearGradient>
<linearGradient id="paint2_linear_0_1962" x1="25.9159" y1="5.09674" x2="22.8086" y2="8.77467" gradientUnits="userSpaceOnUse">
<stop offset="0.1177" stop-color="#7ACA37"/>
<stop offset="0.2561" stop-color="#70C53A"/>
<stop offset="0.4886" stop-color="#56B641"/>
<stop offset="0.7848" stop-color="#2C9F4E"/>
<stop offset="1" stop-color="#098C58"/>
</linearGradient>
</defs>
</svg>
